<?xml version="1.0" encoding="UTF-8"?>
<svg id="Layer_2" data-name="Layer 2" xmlns="http://www.w3.org/2000/svg" viewBox="0 0 300 300">
  <defs>
    <style>
      .cls-1 {
        fill: none;
      }

      .cls-1, .cls-2, .cls-3, .cls-4, .cls-5, .cls-6, .cls-7 {
        stroke-width: 0px;
      }

      .cls-2, .cls-3 {
        opacity: .5;
      }

      .cls-2, .cls-3, .cls-5 {
        isolation: isolate;
      }

      .cls-2, .cls-4 {
        fill: #82ac26;
      }

      .cls-3, .cls-6 {
        fill: #ff662a;
      }

      .cls-5 {
        fill: #aecccb;
        opacity: .6;
      }

      .cls-7 {
        fill: teal;
      }
    </style>
  </defs>
  <g id="Layer_2-2" data-name="Layer 2">
    <g>
      <rect class="cls-1" width="300" height="300"/>
      <g id="Layer_2-2" data-name="Layer 2-2">
        <g>
          <path class="cls-5" d="M257.75,172.18v-44.35c1.01-.26,1.72-1.29,1.44-2.43-.17-.69-.74-1.26-1.43-1.44-.76-.2-1.46.06-1.94.54l-20.15-11.58c.06-.2.09-.41.08-.65-.06-.93-.79-1.74-1.71-1.87-.67-.09-1.28.15-1.7.58l-6.46-3.76c.11-.38.12-.8-.07-1.27-.27-.66-.88-1.16-1.59-1.25-.67-.08-1.27.16-1.69.58l-71.65-41.36c.05-.17.08-.35.08-.54,0-1.1-.9-2-2-2s-2,.9-2,2c0,.19.03.37.08.54l-71.66,41.36c-.46-.47-1.13-.71-1.88-.55-.7.15-1.28.71-1.47,1.4-.31,1.16.4,2.22,1.43,2.48v82.75c-.86.22-1.5.99-1.5,1.92,0,1.11.9,2,2,2,.56,0,1.06-.23,1.42-.6l71.66,41.37c-.05.17-.08.35-.08.53,0,1.11.9,2,2,2s2-.89,2-2c0-.18-.03-.36-.08-.53l71.65-41.37c.37.37.87.6,1.43.6,1.1,0,2-.89,2-2,0-.18-.03-.35-.08-.52l6.45-3.68c.36.37.87.6,1.43.6,1.1,0,2-.89,2-2,0-.18-.03-.36-.08-.53l20.16-11.66c.36.36.86.59,1.42.59,1.1,0,2-.89,2-2,0-.92-.64-1.7-1.5-1.92v.02ZM223.45,174.08c-.86.22-1.5,1-1.5,1.92,0,.19.03.37.08.54l-11.66,6.76c-.25-.25-.57-.43-.92-.52v-65.45c.35-.09.67-.27.92-.52l11.66,6.76c-.05.17-.08.35-.08.53,0,.93.64,1.71,1.5,1.93v48.05h0ZM223.45,122.18c-.36.09-.67.27-.92.52l-11.67-6.73c.19-.67.23-1.47-1.38-2.41-.16-.09-.35-.16-.53-.16-.56,0-1.06.24-1.43.61l-56.65-32.68c.05-.17.08-.34.08-.53,0-1.1-.9-2-2-2s-2,.9-2,2c0,.19.03.36.08.53l-56.65,32.68c-.48-.48-1.18-.74-1.94-.54-.69.18-1.26.74-1.43,1.44-.28,1.14.43,2.17,1.44,2.43v65.45c-.86.22-1.5.99-1.5,1.92,0,1.11.9,2,2,2,.56,0,1.06-.23,1.43-.6l56.65,32.68c-.05.17-.08.34-.08.52,0,1.11.9,2,2,2s2-.89,2-2c0-.18-.03-.36-.08-.53l56.65-32.67c.37.37.87.6,1.43.6,1.1,0,2-.89,2-2,0-.18-.03-.36-.08-.53l11.66-6.76c.25.25.57.43.92.52v13.45c-.86.22-1.5.99-1.5,1.92,0,.19.03.37.08.54l-71.66,41.36c-.36-.36-.86-.6-1.42-.6s-1.06.24-1.43.6l-71.65-41.36c.05-.17.08-.35.08-.54,0-.93-.64-1.7-1.5-1.92v-82.75c.86-.22,1.5-1,1.5-1.93,0-.18-.03-.36-.08-.53l71.65-41.37c.37.37.87.6,1.43.6s1.06-.23,1.42-.6l71.66,41.37c-.05.17-.08.35-.08.53,0,.93.64,1.71,1.5,1.93v13.55h0ZM207.03,185.23l-56.65,32.68c-.37-.37-.87-.61-1.43-.61s-1.06.24-1.43.61l-56.65-32.68c.05-.17.08-.34.08-.53,0-.93-.64-1.7-1.5-1.92v-65.45c.86-.22,1.5-1,1.5-1.93,0-.18-.03-.36-.08-.53l56.65-32.67c.37.37.87.6,1.43.6s1.06-.23,1.43-.6l56.65,32.67c-.05.17-.08.35-.08.53,0,.93.64,1.71,1.5,1.93v65.45c-.86.22-1.5.99-1.5,1.92,0,.19.03.36.08.53ZM233.25,185.78c-.86.22-1.5.99-1.5,1.92,0,.19.03.36.08.53l-6.45,3.68c-.25-.26-.57-.44-.93-.53v-13.45c.86-.22,1.5-1,1.5-1.93,0-.18-.03-.35-.08-.52l2.98-1.7,3.47-1.98c.25.26.57.44.93.53v13.45ZM233.25,168.48c-.86.22-1.5,1-1.5,1.92,0,.19.03.36.08.53l-2.98,1.7-3.47,1.98c-.25-.26-.57-.44-.93-.53v-48.05c.36-.09.68-.27.93-.53l3.47,1.98,2.98,1.7c-.05.17-.08.34-.08.52,0,.93.64,1.71,1.5,1.93v36.85h0ZM233.25,127.78c-.36.09-.68.27-.93.53l-3.47-1.98-2.98-1.7c.05-.17.08-.34.08-.53,0-.92-.64-1.7-1.5-1.92v-13.55c.35-.09.67-.27.92-.52l6.46,3.76c-.05.17-.08.35-.08.53,0,.93.64,1.71,1.5,1.93v13.45h0ZM234.25,131.63c.35-.09.67-.27.92-.52l20.16,11.66c-.02.08-.04.15-.05.23-.02.1-.03.2-.03.3,0,.19.03.36.08.53l-8.35,4.78c-.36-.37-.87-.61-1.43-.61-1.31,0-2.33,1.27-1.9,2.63.22.7.86,1.24,1.58,1.34.69.1,1.31-.13,1.74-.57l8.36,4.86c-.02.08-.04.15-.05.23-.02.1-.03.2-.03.3,0,.19.03.37.08.54l-20.16,11.66c-.25-.25-.57-.43-.92-.52v-36.85h0ZM256.75,172.18c-.86.22-1.5,1-1.5,1.92,0,.19.03.37.08.54l-20.16,11.66c-.25-.25-.56-.43-.92-.52v-13.45c.86-.22,1.5-1,1.5-1.93,0-.18-.03-.36-.08-.53l20.16-11.66s.04.04.07.06c.09.09.19.16.3.23.08.04.16.09.24.12.1.05.2.08.31.11v13.45h0ZM256.75,154.88c-.11.03-.21.06-.31.11-.08.03-.16.08-.24.12-.11.07-.21.14-.3.23-.03.02-.05.04-.07.06l-8.36-4.86c.05-.17.08-.35.08-.54,0-.18-.03-.35-.08-.52l8.35-4.78s.05.05.08.07c.07.07.16.13.24.19,0,0,.02.01.02.01.09.06.18.11.28.15.1.05.2.08.31.11v9.65h0ZM256.75,141.38c-.11.03-.21.06-.31.11-.08.03-.16.08-.24.12-.11.07-.21.14-.3.23-.03.02-.05.04-.07.06l-20.16-11.66c.05-.17.08-.35.08-.54,0-.93-.64-1.7-1.5-1.92v-13.45c.36-.09.68-.27.93-.53l20.15,11.58c-.05.17-.08.34-.08.52,0,.93.64,1.71,1.5,1.93v13.55h0Z"/>
          <g>
            <g>
              <g>
                <path class="cls-3" d="M140.95,181.45v-6.9c0-1.3-.7-2.4-1.8-3l-32-18.5c-2.3-1.3-2.3-4.7,0-6.1l32-18.5c1.1-.6,1.8-1.8,1.8-3v-6.9c0-2.7-2.9-4.4-5.2-3l-54.5,31.4c-2.3,1.3-2.3,4.7,0,6.1l54.5,31.4c2.3,1.4,5.2-.3,5.2-3Z"/>
                <path class="cls-6" d="M140.95,166.45v-32.9c0-2.7-2.9-4.4-5.2-3l-28.5,16.4c-2.3,1.3-2.3,4.7,0,6.1l28.5,16.4c2.3,1.4,5.2-.3,5.2-3Z"/>
              </g>
              <g>
                <path class="cls-2" d="M156.95,181.45v-6.9c0-1.3.7-2.4,1.8-3l32-18.5c2.3-1.3,2.3-4.7,0-6.1l-32-18.5c-1.1-.6-1.8-1.8-1.8-3v-6.9c0-2.7,2.9-4.4,5.2-3l54.5,31.4c2.3,1.3,2.3,4.7,0,6.1l-54.5,31.4c-2.2,1.4-5.2-.3-5.2-3Z"/>
                <path class="cls-4" d="M156.95,133.55v32.9c0,2.7,2.9,4.4,5.2,3l28.5-16.4c2.3-1.3,2.3-4.7,0-6.1l-28.4-16.4c-2.3-1.4-5.3.3-5.3,3Z"/>
              </g>
            </g>
            <g>
              <g>
                <path class="cls-7" d="M151.45,244.71v25.38c0,1.54,1.67,2.5,3,1.73l97.3-56.14c1.33-.77,1.33-2.7,0-3.46l-22-12.69c-.62-.36-1.38-.36-2,0l-75.3,43.45c-.62.36-1,1.02-1,1.73h0Z"/>
                <path class="cls-7" d="M68.25,199.53l-22,12.69c-1.33.77-1.33,2.69,0,3.46l97.2,56.13c1.33.77,3-.19,3-1.73v-25.38c0-.71-.38-1.37-1-1.73l-75.2-43.44c-.62-.36-1.38-.36-2,0h0Z"/>
                <path class="cls-7" d="M146.45,55.3v-25.39c0-1.54-1.67-2.5-3-1.73l-97.2,56.14c-1.33.77-1.33,2.69,0,3.46l22,12.69c.62.36,1.38.36,2,0l75.2-43.44c.62-.36,1-1.02,1-1.73Z"/>
                <path class="cls-7" d="M229.75,100.47l22-12.69c1.33-.77,1.33-2.7,0-3.46l-97.3-56.14c-1.33-.77-3,.19-3,1.73v25.38c0,.71.38,1.38,1,1.73l75.3,43.45c.62.36,1.38.36,2,0Z"/>
                <path class="cls-7" d="M65.75,104.77l-22-12.69c-1.33-.77-3,.19-3,1.73v112.37c0,1.54,1.67,2.5,3,1.73l22-12.69c.62-.36,1-1.02,1-1.73v-86.99c0-.71-.38-1.38-1-1.73Z"/>
              </g>
              <path class="cls-7" d="M254.25,92.09l-17.5,10.13c-1.33.77-1.33,2.7,0,3.47l17.5,10.05c1.33.77,3-.2,3-1.73v-20.18c0-1.54-1.67-2.5-3-1.73h0Z"/>
              <path class="cls-7" d="M254.25,184.27l-17.5,10.05c-1.34.77-1.34,2.69,0,3.47l17.5,10.13c1.33.77,3-.19,3-1.73v-20.18c0-1.54-1.66-2.5-3-1.73h0Z"/>
            </g>
          </g>
        </g>
      </g>
    </g>
  </g>
</svg>