<?xml version="1.0" encoding="UTF-8"?>
<svg id="Layer_2" data-name="Layer 2" xmlns="http://www.w3.org/2000/svg" viewBox="0 0 173 30">
  <defs>
    <style>
      .cls-1 {
        fill: none;
      }

      .cls-1, .cls-2, .cls-3, .cls-4, .cls-5, .cls-6, .cls-7, .cls-8 {
        stroke-width: 0px;
      }

      .cls-2, .cls-3 {
        opacity: .5;
      }

      .cls-2, .cls-3, .cls-5 {
        isolation: isolate;
      }

      .cls-2, .cls-4 {
        fill: #82ac26;
      }

      .cls-3, .cls-6 {
        fill: #ff662a;
      }

      .cls-5 {
        fill: #aecccb;
        opacity: .6;
      }

      .cls-7 {
        fill: #00156a;
      }

      .cls-8 {
        fill: teal;
      }
    </style>
  </defs>
  <g id="Layer_1-2" data-name="Layer 1">
    <g>
      <g>
        <g>
          <path class="cls-7" d="M37.92,27.65c-1.3,0-2.3-.2-3.2-.7s-1.6-1.2-2-2.2c-.5-.9-.7-2.1-.7-3.4v-12.8c0-1.3.2-2.5.7-3.4s1.2-1.7,2-2.2c.9-.5,2-.7,3.2-.7,1.3,0,2.3.2,3.2.7s1.6,1.2,2,2.2c.5.9.7,2.1.7,3.4v2h-4.3v-2c0-.4-.1-.8-.2-1.1-.1-.3-.3-.5-.6-.7s-.6-.3-.9-.3c-.5,0-.9.2-1.2.5-.2.5-.4,1-.4,1.6v12.7c0,.6.1,1.1.4,1.5.3.4.7.5,1.2.5s1-.2,1.2-.5c.3-.4.4-.9.4-1.5v-2h4.3v2c0,1.3-.2,2.5-.7,3.4s-1.1,1.7-2,2.2c-.8.5-1.9.8-3.1.8Z"/>
          <path class="cls-7" d="M53.22,2.55h-3l-5.9,24.9h4.2l.8-3.9h4.9l.8,3.9h4.2l-6-24.9ZM50.12,19.55l1.7-8.5,1.7,8.5h-3.4Z"/>
          <path class="cls-7" d="M71.62,3.95c-1-1-2.4-1.5-4.2-1.5h-6.4v24.9h6.4c1.2,0,2.2-.2,3.1-.7.8-.4,1.5-1.1,1.9-1.9s.7-1.8.7-3v-13.7c0-1.7-.5-3.1-1.5-4.1ZM68.82,21.35c0,.6-.2,1.1-.5,1.5-.3.3-.7.5-1.3.5h-1.8V6.55h1.8c.6,0,1,.2,1.3.5s.5.8.5,1.5v12.8Z"/>
          <path class="cls-7" d="M91.62,24.25c.1-.3.3-.6.4-.9.5-1.3.8-3,.8-4.9h-2.8c0,1.1-.1,2-.2,2.8l-1.4-2.2c-.6-.9-1-1.7-1.3-2.5-.5-.8-.7-1.6-.7-2.4,0-.5.1-.8.3-1,.2-.2.5-.4.8-.4s.6.1.8.4c.2.2.3.6.3,1v1.4h2.9v-1.4c0-1.2-.3-2.2-1-2.9-.7-.7-1.7-1-2.9-1s-2.2.4-2.9,1.1c-.7.7-1,1.7-1,2.9s.2,2.3.7,3.3c.2.5.5.9.7,1.5-.7.2-1.2.6-1.7,1-.8.8-1.2,1.8-1.2,3.1,0,1.4.4,2.6,1.1,3.4.8.8,1.8,1.2,3.1,1.2,1.2,0,2.3-.3,3.2-.9l.4.7h3.6l-2-3.3ZM86.82,24.85c-.6,0-1.1-.2-1.4-.5s-.5-.8-.5-1.4.2-1.1.7-1.4c.2-.1.4-.2.7-.3l1.9,3.1c-.4.4-.8.5-1.4.5Z"/>
          <path class="cls-7" d="M108.22,27.65c-1.3,0-2.3-.2-3.2-.7-.9-.5-1.6-1.2-2-2.2-.5-.9-.7-2.1-.7-3.4v-12.8c0-1.3.2-2.5.7-3.4s1.2-1.7,2-2.2c.9-.5,2-.7,3.2-.7,1.3,0,2.3.2,3.2.7.9.5,1.6,1.2,2,2.2.5.9.7,2.1.7,3.4v2h-4.3v-2c0-.4-.1-.8-.2-1.1-.1-.3-.3-.5-.6-.7-.3-.2-.6-.3-.9-.3-.5,0-.9.2-1.2.5-.3.4-.4.9-.4,1.5v12.7c0,.6.1,1.1.4,1.5s.7.5,1.2.5,1-.2,1.2-.5c.3-.4.4-.9.4-1.5v-2h4.3v2c0,1.3-.2,2.5-.7,3.4s-1.1,1.7-2,2.2c-.8.6-1.9.9-3.1.9Z"/>
          <path class="cls-7" d="M122.52,27.65c-1.3,0-2.5-.2-3.4-.7-1-.5-1.7-1.1-2.2-2s-.8-1.9-.8-3.2v-13.6c0-1.2.2-2.3.8-3.2.5-.9,1.2-1.5,2.2-2s2.1-.7,3.4-.7,2.5.2,3.4.7c1,.5,1.7,1.1,2.2,2s.8,1.9.8,3.2v13.7c0,1.2-.3,2.3-.8,3.2-.5.9-1.2,1.5-2.2,2-.9.4-2.1.6-3.4.6ZM122.52,23.35c.7,0,1.2-.2,1.5-.6.4-.4.5-.9.5-1.6v-12.5c0-.7-.2-1.2-.5-1.6-.4-.4-.9-.6-1.5-.6-.7,0-1.2.2-1.5.6-.4.4-.5.9-.5,1.6v12.6c0,.7.2,1.2.5,1.6.4.4.9.5,1.5.5Z"/>
          <path class="cls-7" d="M142.22,3.95c-1-1-2.4-1.5-4.2-1.5h-6.4v24.9h6.4c1.2,0,2.2-.2,3.1-.7.8-.4,1.5-1.1,1.9-1.9s.7-1.8.7-3v-13.7c-.1-1.7-.6-3.1-1.5-4.1ZM139.32,21.35c0,.6-.2,1.1-.5,1.5-.3.3-.8.5-1.3.5h-1.8V6.55h1.8c.6,0,1,.2,1.3.5s.5.8.5,1.5v12.8Z"/>
          <polygon class="cls-7" points="150.62 6.65 150.62 12.95 156.52 12.95 156.52 17.05 150.62 17.05 150.62 23.25 157.42 23.25 157.42 27.35 146.32 27.35 146.32 2.55 157.42 2.55 157.42 6.65 150.62 6.65"/>
          <path class="cls-7" d="M165.52,27.65c-1.3,0-2.4-.2-3.4-.7-.9-.5-1.6-1.2-2.1-2.1s-.7-2-.7-3.3v-1.3h4.2v1.3c0,.6.2,1.1.5,1.5.4.4.8.5,1.5.5.6,0,1.1-.2,1.4-.5.3-.4.5-.8.5-1.5v-2.2c0-.5-.2-.9-.5-1.3-.3-.3-.7-.7-1.2-.9-.5-.3-1-.6-1.6-.8-.6-.3-1.1-.6-1.7-1-.6-.4-1.1-.8-1.6-1.3s-.9-1.1-1.1-1.8c-.3-.7-.4-1.6-.4-2.6v-1.3c0-1.9.5-3.4,1.6-4.5s2.6-1.6,4.6-1.6,3.4.5,4.5,1.6,1.6,2.6,1.6,4.5v1.4l-4.2.1v-1.4c0-.6-.2-1.1-.5-1.5s-.8-.5-1.4-.5-1.1.2-1.4.5c-.3.3-.5.8-.5,1.3v1.7c0,.6.2,1.1.5,1.4.3.4.8.7,1.3,1s1.1.6,1.8.9c.5.3,1.1.6,1.6.9.5.3,1,.7,1.5,1.2.4.5.8,1,1.1,1.7s.4,1.5.4,2.5v2.1c0,1.9-.5,3.4-1.6,4.5-1.3.9-2.8,1.5-4.7,1.5Z"/>
        </g>
        <g>
          <g>
            <g>
              <path class="cls-3" d="M12.67,18.61v-.79c0-.15-.08-.28-.21-.34l-3.67-2.12c-.26-.15-.26-.54,0-.7l3.67-2.12c.13-.07.21-.21.21-.34v-.79c0-.31-.33-.5-.6-.34l-6.25,3.6c-.26.15-.26.54,0,.7l6.25,3.6c.26.16.6-.03.6-.34Z"/>
              <path class="cls-6" d="M12.67,16.89v-3.77c0-.31-.33-.5-.6-.34l-3.27,1.88c-.26.15-.26.54,0,.7l3.27,1.88c.26.16.6-.03.6-.34Z"/>
            </g>
            <g>
              <path class="cls-2" d="M14.51,18.61v-.79c0-.15.08-.28.21-.34l3.67-2.12c.26-.15.26-.54,0-.7l-3.67-2.12c-.13-.07-.21-.21-.21-.34v-.79c0-.31.33-.5.6-.34l6.25,3.6c.26.15.26.54,0,.7l-6.25,3.6c-.25.16-.6-.03-.6-.34Z"/>
              <path class="cls-4" d="M14.51,13.11v3.77c0,.31.33.5.6.34l3.27-1.88c.26-.15.26-.54,0-.7l-3.26-1.88c-.26-.16-.61.03-.61.34Z"/>
            </g>
          </g>
          <g>
            <g>
              <path class="cls-8" d="M13.88,25.86v2.91c0,.18.19.29.34.2l11.16-6.44c.15-.09.15-.31,0-.4l-2.52-1.46c-.07-.04-.16-.04-.23,0l-8.63,4.98c-.07.04-.11.12-.11.2h0Z"/>
              <path class="cls-8" d="M4.34,20.68l-2.52,1.46c-.15.09-.15.31,0,.4l11.15,6.44c.15.09.34-.02.34-.2v-2.91c0-.08-.04-.16-.11-.2l-8.62-4.98c-.07-.04-.16-.04-.23,0h0Z"/>
              <path class="cls-8" d="M13.3,4.14V1.23c0-.18-.19-.29-.34-.2L1.81,7.47c-.15.09-.15.31,0,.4l2.52,1.46c.07.04.16.04.23,0l8.62-4.98c.07-.04.11-.12.11-.2Z"/>
              <path class="cls-8" d="M22.85,9.32l2.52-1.46c.15-.09.15-.31,0-.4L14.22,1.03c-.15-.09-.34.02-.34.2v2.91c0,.08.04.16.11.2l8.63,4.98c.07.04.16.04.23,0Z"/>
              <path class="cls-8" d="M4.05,9.81l-2.52-1.46c-.15-.09-.34.02-.34.2v12.89c0,.18.19.29.34.2l2.52-1.46c.07-.04.11-.12.11-.2v-9.97c0-.08-.04-.16-.11-.2Z"/>
            </g>
            <path class="cls-8" d="M25.66,8.36l-2.01,1.16c-.15.09-.15.31,0,.4l2.01,1.15c.15.09.34-.02.34-.2v-2.31c0-.18-.19-.29-.34-.2h0Z"/>
            <path class="cls-8" d="M25.66,18.93l-2.01,1.15c-.15.09-.15.31,0,.4l2.01,1.16c.15.09.34-.02.34-.2v-2.31c0-.18-.19-.29-.34-.2h0Z"/>
          </g>
          <path class="cls-5" d="M26.07,17.54h0s0-5.08,0-5.08c.12-.03.2-.15.17-.28-.02-.08-.08-.14-.16-.17-.09-.02-.17,0-.22.06l-2.31-1.33s.01-.05,0-.07c0-.11-.09-.2-.2-.21-.08-.01-.15.02-.19.07l-.74-.43s.01-.09,0-.15c-.03-.08-.1-.13-.18-.14-.08,0-.15.02-.19.07l-8.22-4.74s0-.04,0-.06c0-.13-.1-.23-.23-.23s-.23.1-.23.23c0,.02,0,.04,0,.06l-8.22,4.74c-.05-.05-.13-.08-.22-.06-.08.02-.15.08-.17.16-.04.13.05.25.16.28v9.49c-.1.03-.17.11-.17.22,0,.13.1.23.23.23.06,0,.12-.03.16-.07l8.22,4.74s0,.04,0,.06c0,.13.1.23.23.23s.23-.1.23-.23c0-.02,0-.04,0-.06l8.22-4.74s.1.07.16.07c.13,0,.23-.1.23-.23,0-.02,0-.04,0-.06l.74-.42s.1.07.16.07c.13,0,.23-.1.23-.23,0-.02,0-.04,0-.06l2.31-1.34s.1.07.16.07c.13,0,.23-.1.23-.23,0-.11-.07-.19-.17-.22ZM22.13,17.76c-.1.03-.17.11-.17.22,0,.02,0,.04,0,.06l-1.34.78s-.07-.05-.11-.06v-7.51s.08-.03.11-.06l1.34.78s0,.04,0,.06c0,.11.07.2.17.22v5.51ZM20.41,11.25v7.51c-.1.03-.17.11-.17.22,0,.02,0,.04,0,.06l-6.5,3.75s-.1-.07-.16-.07-.12.03-.16.07l-6.5-3.75s0-.04,0-.06c0-.11-.07-.19-.17-.22v-7.51c.1-.03.17-.11.17-.22,0-.02,0-.04,0-.06l6.5-3.75s.1.07.16.07.12-.03.16-.07l6.5,3.75s0,.04,0,.06c0,.06.03.11.06.15.01.01.03.02.04.03.02.02.04.04.07.04ZM22.13,11.81s-.08.03-.11.06l-1.34-.77s0-.04,0-.06c0,0,0,0,0,0,0,0,0,0,0,0,0-.03-.01-.07-.04-.11-.02-.04-.06-.07-.1-.09,0,0-.01-.01-.02-.02-.02-.01-.04-.02-.06-.02,0,0,0,0,0,0-.06,0-.12.03-.16.07,0,0,0,0,0,0l-6.5-3.75s0-.04,0-.06c0-.13-.1-.23-.23-.23s-.23.1-.23.23c0,.02,0,.04,0,.06l-6.5,3.75c-.06-.06-.14-.08-.22-.06-.08.02-.14.08-.16.17-.03.13.05.25.17.28v7.51c-.1.03-.17.11-.17.22,0,.13.1.23.23.23.06,0,.12-.03.16-.07l6.5,3.75s0,.04,0,.06c0,.13.1.23.23.23s.23-.1.23-.23c0-.02,0-.04,0-.06l6.5-3.75s.1.07.16.07c.13,0,.23-.1.23-.23,0-.02,0-.04,0-.06l1.34-.78s.07.05.11.06v1.54c-.1.03-.17.11-.17.22,0,.02,0,.04,0,.06l-8.22,4.74s-.1-.07-.16-.07-.12.03-.16.07l-8.22-4.74s0-.04,0-.06c0-.11-.07-.19-.17-.22v-9.49c.1-.03.17-.11.17-.22,0-.02,0-.04,0-.06l8.22-4.74s.1.07.16.07.12-.03.16-.07l8.22,4.74s0,.04,0,.06c0,.11.07.2.17.22v1.55ZM23.26,19.1c-.1.03-.17.11-.17.22,0,.02,0,.04,0,.06l-.74.42s-.07-.05-.11-.06v-1.54c.1-.03.17-.11.17-.22,0-.02,0-.04,0-.06l.34-.19.4-.23s.07.05.11.06v1.54ZM23.26,17.12c-.1.03-.17.11-.17.22,0,.02,0,.04,0,.06l-.34.19-.4.23s-.07-.05-.11-.06v-5.51s.08-.03.11-.06l.4.23.34.19s0,.04,0,.06c0,.11.07.2.17.22v4.23ZM23.26,12.45s-.08.03-.11.06l-.4-.23-.34-.19s0-.04,0-.06c0-.11-.07-.19-.17-.22v-1.55s.08-.03.11-.06l.74.43s0,.04,0,.06c0,.11.07.2.17.22v1.54ZM23.37,12.89s.08-.03.11-.06l2.31,1.34s0,.02,0,.03c0,.01,0,.02,0,.03,0,.02,0,.04,0,.06l-.96.55s-.1-.07-.16-.07c-.15,0-.27.15-.22.3.03.08.1.14.18.15.08.01.15-.01.2-.07l.96.56s0,.02,0,.03c0,.01,0,.02,0,.03,0,.02,0,.04,0,.06l-2.31,1.34s-.07-.05-.11-.06v-4.22ZM25.95,17.54c-.1.03-.17.11-.17.22,0,.02,0,.04,0,.06l-2.31,1.34s-.06-.05-.11-.06v-1.54c.1-.03.17-.11.17-.22,0-.02,0-.04,0-.06l2.31-1.34s0,0,0,0c.01.01.02.02.03.03,0,0,.02.01.03.01.01,0,.02,0,.04.01v1.54ZM25.95,15.56s-.02,0-.04.01c0,0-.02,0-.03.01-.01,0-.02.02-.03.03,0,0,0,0,0,0l-.96-.56s0-.04,0-.06c0-.02,0-.04,0-.06l.96-.55s0,0,0,0c0,0,.02.01.03.02,0,0,0,0,0,0,.01,0,.02.01.03.02.01,0,.02,0,.04.01v1.11ZM25.95,14.01s-.02,0-.04.01c0,0-.02,0-.03.01-.01,0-.02.02-.03.03,0,0,0,0,0,0l-2.31-1.34s0-.04,0-.06c0-.11-.07-.19-.17-.22v-1.54s.08-.03.11-.06l2.31,1.33s0,.04,0,.06c0,.11.07.2.17.22v1.55Z"/>
        </g>
      </g>
      <rect class="cls-1" width="173" height="30"/>
    </g>
  </g>
</svg>