<?xml version="1.0" encoding="utf-8"?>
<!-- Generator: Adobe Illustrator 28.1.0, SVG Export Plug-In . SVG Version: 6.00 Build 0)  -->
<svg version="1.1" id="Layer_2_00000096033896806724929360000010520495070879494807_"
	 xmlns="http://www.w3.org/2000/svg" xmlns:xlink="http://www.w3.org/1999/xlink" x="0px" y="0px" viewBox="0 0 218.5 244.2"
	 style="enable-background:new 0 0 218.5 244.2;" xml:space="preserve">
<style type="text/css">
	.st0{opacity:0.6;fill:#AECCCB;enable-background:new    ;}
	.st1{opacity:0.5;fill:#FF662A;enable-background:new    ;}
	.st2{fill:#FF662A;}
	.st3{opacity:0.5;fill:#82AC26;enable-background:new    ;}
	.st4{fill:#82AC26;}
	.st5{fill:#008080;}
</style>
<g id="Layer_2-2">
	<g>
		<path class="st0" d="M217,144.3V99.9c1-0.3,1.7-1.3,1.4-2.4c-0.2-0.7-0.7-1.3-1.4-1.4c-0.8-0.2-1.5,0.1-1.9,0.5L194.9,85
			c0.1-0.2,0.1-0.4,0.1-0.7c-0.1-0.9-0.8-1.7-1.7-1.9c-0.7-0.1-1.3,0.2-1.7,0.6l-6.5-3.8c0.1-0.4,0.1-0.8-0.1-1.3
			c-0.3-0.7-0.9-1.2-1.6-1.2c-0.7-0.1-1.3,0.2-1.7,0.6L110.1,36c0.1-0.2,0.1-0.3,0.1-0.5c0-1.1-0.9-2-2-2s-2,0.9-2,2
			c0,0.2,0,0.4,0.1,0.5L34.6,77.4c-0.5-0.5-1.1-0.7-1.9-0.6c-0.7,0.2-1.3,0.7-1.5,1.4c-0.3,1.2,0.4,2.2,1.4,2.5v82.8
			c-0.9,0.2-1.5,1-1.5,1.9c0,1.1,0.9,2,2,2c0.6,0,1.1-0.2,1.4-0.6l71.7,41.4c-0.1,0.2-0.1,0.4-0.1,0.5c0,1.1,0.9,2,2,2s2-0.9,2-2
			c0-0.2,0-0.4-0.1-0.5l71.7-41.4c0.4,0.4,0.9,0.6,1.4,0.6c1.1,0,2-0.9,2-2c0-0.2,0-0.4-0.1-0.5l6.4-3.7c0.4,0.4,0.9,0.6,1.4,0.6
			c1.1,0,2-0.9,2-2c0-0.2,0-0.4-0.1-0.5l20.2-11.7c0.4,0.4,0.9,0.6,1.4,0.6c1.1,0,2-0.9,2-2C218.5,145.3,217.9,144.5,217,144.3
			L217,144.3z M182.7,146.2c-0.9,0.2-1.5,1-1.5,1.9c0,0.2,0,0.4,0.1,0.5l-11.7,6.8c-0.2-0.2-0.6-0.4-0.9-0.5V89.4
			c0.4-0.1,0.7-0.3,0.9-0.5l11.7,6.8c-0.1,0.2-0.1,0.3-0.1,0.5c0,0.9,0.6,1.7,1.5,1.9V146.2L182.7,146.2z M182.7,94.3
			c-0.4,0.1-0.7,0.3-0.9,0.5l-11.7-6.7c0.2-0.7,0.2-1.5-1.4-2.4c-0.2-0.1-0.4-0.2-0.5-0.2c-0.6,0-1.1,0.2-1.4,0.6l-56.7-32.7
			c0.1-0.2,0.1-0.3,0.1-0.5c0-1.1-0.9-2-2-2s-2,0.9-2,2c0,0.2,0,0.4,0.1,0.5L49.6,86.1c-0.5-0.5-1.2-0.7-1.9-0.5
			c-0.7,0.2-1.3,0.7-1.4,1.4c-0.3,1.1,0.4,2.2,1.4,2.4v65.4c-0.9,0.2-1.5,1-1.5,1.9c0,1.1,0.9,2,2,2c0.6,0,1.1-0.2,1.4-0.6
			l56.7,32.7c-0.1,0.2-0.1,0.3-0.1,0.5c0,1.1,0.9,2,2,2s2-0.9,2-2c0-0.2,0-0.4-0.1-0.5l56.7-32.7c0.4,0.4,0.9,0.6,1.4,0.6
			c1.1,0,2-0.9,2-2c0-0.2,0-0.4-0.1-0.5l11.7-6.8c0.2,0.2,0.6,0.4,0.9,0.5v13.4c-0.9,0.2-1.5,1-1.5,1.9c0,0.2,0,0.4,0.1,0.5
			l-71.7,41.4c-0.4-0.4-0.9-0.6-1.4-0.6s-1.1,0.2-1.4,0.6l-71.7-41.4c0-0.2,0.1-0.4,0.1-0.5c0-0.9-0.6-1.7-1.5-1.9V80.7
			c0.9-0.2,1.5-1,1.5-1.9c0-0.2,0-0.4-0.1-0.5l71.7-41.4c0.4,0.4,0.9,0.6,1.4,0.6s1.1-0.2,1.4-0.6l71.7,41.4
			c-0.1,0.2-0.1,0.3-0.1,0.5c0,0.9,0.6,1.7,1.5,1.9V94.3L182.7,94.3z M166.3,157.3L109.6,190c-0.4-0.4-0.9-0.6-1.4-0.6
			s-1.1,0.2-1.4,0.6l-56.7-32.7c0-0.2,0.1-0.3,0.1-0.5c0-0.9-0.6-1.7-1.5-1.9V89.4c0.9-0.2,1.5-1,1.5-1.9c0-0.2,0-0.4-0.1-0.5
			l56.7-32.7c0.4,0.4,0.9,0.6,1.4,0.6s1.1-0.2,1.4-0.6L166.3,87c-0.1,0.2-0.1,0.3-0.1,0.5c0,0.9,0.6,1.7,1.5,1.9v65.4
			c-0.9,0.2-1.5,1-1.5,1.9C166.2,157,166.2,157.2,166.3,157.3z M192.5,157.9c-0.9,0.2-1.5,1-1.5,1.9c0,0.2,0,0.4,0.1,0.5l-6.4,3.7
			c-0.2-0.3-0.6-0.4-0.9-0.5V150c0.9-0.2,1.5-1,1.5-1.9c0-0.2,0-0.4-0.1-0.5l3-1.7l3.5-2c0.2,0.3,0.6,0.4,0.9,0.5V157.9z
			 M192.5,140.6c-0.9,0.2-1.5,1-1.5,1.9c0,0.2,0,0.4,0.1,0.5l-3,1.7l-3.5,2c-0.2-0.3-0.6-0.4-0.9-0.5V98.1c0.4-0.1,0.7-0.3,0.9-0.5
			l3.5,2l3,1.7c-0.1,0.2-0.1,0.3-0.1,0.5c0,0.9,0.6,1.7,1.5,1.9V140.6L192.5,140.6z M192.5,99.9c-0.4,0.1-0.7,0.3-0.9,0.5l-3.5-2
			l-3-1.7c0.1-0.2,0.1-0.3,0.1-0.5c0-0.9-0.6-1.7-1.5-1.9V80.7c0.4-0.1,0.7-0.3,0.9-0.5l6.5,3.8c-0.1,0.2-0.1,0.3-0.1,0.5
			c0,0.9,0.6,1.7,1.5,1.9L192.5,99.9L192.5,99.9z M193.5,103.7c0.4-0.1,0.7-0.3,0.9-0.5l20.2,11.7c0,0.1,0,0.2-0.1,0.2
			c0,0.1,0,0.2,0,0.3c0,0.2,0,0.4,0.1,0.5l-8.4,4.8c-0.4-0.4-0.9-0.6-1.4-0.6c-1.3,0-2.3,1.3-1.9,2.6c0.2,0.7,0.9,1.2,1.6,1.3
			c0.7,0.1,1.3-0.1,1.7-0.6l8.4,4.9c0,0.1,0,0.1-0.1,0.2c0,0.1,0,0.2,0,0.3c0,0.2,0,0.4,0.1,0.5l-20.2,11.7
			c-0.2-0.2-0.6-0.4-0.9-0.5L193.5,103.7L193.5,103.7z M216,144.3c-0.9,0.2-1.5,1-1.5,1.9c0,0.2,0,0.4,0.1,0.5l-20.2,11.7
			c-0.2-0.2-0.6-0.4-0.9-0.5v-13.4c0.9-0.2,1.5-1,1.5-1.9c0-0.2,0-0.4-0.1-0.5l20.2-11.7c0,0,0,0,0.1,0.1c0.1,0.1,0.2,0.2,0.3,0.2
			c0.1,0,0.2,0.1,0.2,0.1c0.1,0.1,0.2,0.1,0.3,0.1L216,144.3L216,144.3z M216,127c-0.1,0-0.2,0.1-0.3,0.1c-0.1,0-0.2,0.1-0.2,0.1
			c-0.1,0.1-0.2,0.1-0.3,0.2c0,0-0.1,0-0.1,0.1l-8.4-4.9c0.1-0.2,0.1-0.3,0.1-0.5c0-0.2,0-0.3-0.1-0.5l8.4-4.8c0,0,0.1,0.1,0.1,0.1
			c0.1,0.1,0.2,0.1,0.2,0.2c0,0,0,0,0,0c0.1,0.1,0.2,0.1,0.3,0.2c0.1,0.1,0.2,0.1,0.3,0.1V127L216,127z M216,113.5
			c-0.1,0-0.2,0.1-0.3,0.1c-0.1,0-0.2,0.1-0.2,0.1c-0.1,0.1-0.2,0.1-0.3,0.2c0,0-0.1,0-0.1,0.1l-20.2-11.7c0.1-0.2,0.1-0.3,0.1-0.5
			c0-0.9-0.6-1.7-1.5-1.9V86.4c0.4-0.1,0.7-0.3,0.9-0.5l20.1,11.6c-0.1,0.2-0.1,0.3-0.1,0.5c0,0.9,0.6,1.7,1.5,1.9L216,113.5
			L216,113.5z"/>
		<g>
			<g>
				<g>
					<path class="st1" d="M100.2,153.5v-6.9c0-1.3-0.7-2.4-1.8-3l-32-18.5c-2.3-1.3-2.3-4.7,0-6.1l32-18.5c1.1-0.6,1.8-1.8,1.8-3
						v-6.9c0-2.7-2.9-4.4-5.2-3L40.5,119c-2.3,1.3-2.3,4.7,0,6.1L95,156.5C97.3,157.9,100.2,156.2,100.2,153.5z"/>
					<path class="st2" d="M100.2,138.5v-32.9c0-2.7-2.9-4.4-5.2-3L66.5,119c-2.3,1.3-2.3,4.7,0,6.1L95,141.5
						C97.3,142.9,100.2,141.2,100.2,138.5z"/>
				</g>
				<g>
					<path class="st3" d="M116.2,153.5v-6.9c0-1.3,0.7-2.4,1.8-3l32-18.5c2.3-1.3,2.3-4.7,0-6.1l-32-18.5c-1.1-0.6-1.8-1.8-1.8-3
						v-6.9c0-2.7,2.9-4.4,5.2-3l54.5,31.4c2.3,1.3,2.3,4.7,0,6.1l-54.5,31.4C119.2,157.9,116.2,156.2,116.2,153.5z"/>
					<path class="st4" d="M116.2,105.6v32.9c0,2.7,2.9,4.4,5.2,3l28.5-16.4c2.3-1.3,2.3-4.7,0-6.1l-28.4-16.4
						C119.2,101.2,116.2,102.9,116.2,105.6z"/>
				</g>
			</g>
			<g>
				<g>
					<path class="st5" d="M110.7,216.8v25.4c0,1.5,1.7,2.5,3,1.7l97.3-56.1c1.3-0.8,1.3-2.7,0-3.5l-22-12.7c-0.6-0.4-1.4-0.4-2,0
						l-75.3,43.4C111.1,215.4,110.7,216.1,110.7,216.8L110.7,216.8z"/>
					<path class="st5" d="M27.5,171.6l-22,12.7c-1.3,0.8-1.3,2.7,0,3.5l97.2,56.1c1.3,0.8,3-0.2,3-1.7v-25.4c0-0.7-0.4-1.4-1-1.7
						l-75.2-43.4C28.9,171.3,28.1,171.3,27.5,171.6L27.5,171.6z"/>
					<path class="st5" d="M105.7,27.4V2c0-1.5-1.7-2.5-3-1.7L5.5,56.4c-1.3,0.8-1.3,2.7,0,3.5l22,12.7c0.6,0.4,1.4,0.4,2,0
						l75.2-43.4C105.3,28.8,105.7,28.1,105.7,27.4z"/>
					<path class="st5" d="M189,72.6l22-12.7c1.3-0.8,1.3-2.7,0-3.5L113.7,0.3c-1.3-0.8-3,0.2-3,1.7v25.4c0,0.7,0.4,1.4,1,1.7
						L187,72.6C187.6,72.9,188.4,72.9,189,72.6z"/>
					<path class="st5" d="M25,76.9L3,64.2c-1.3-0.8-3,0.2-3,1.7v112.4c0,1.5,1.7,2.5,3,1.7l22-12.7c0.6-0.4,1-1,1-1.7v-87
						C26,77.9,25.6,77.2,25,76.9z"/>
				</g>
				<path class="st5" d="M213.5,64.2L196,74.3c-1.3,0.8-1.3,2.7,0,3.5l17.5,10.1c1.3,0.8,3-0.2,3-1.7V65.9
					C216.5,64.4,214.8,63.4,213.5,64.2L213.5,64.2z"/>
				<path class="st5" d="M213.5,156.4L196,166.4c-1.3,0.8-1.3,2.7,0,3.5l17.5,10.1c1.3,0.8,3-0.2,3-1.7v-20.2
					C216.5,156.6,214.8,155.6,213.5,156.4L213.5,156.4z"/>
			</g>
		</g>
	</g>
</g>
</svg>
