<?xml version="1.0" encoding="UTF-8"?>
<svg id="Layer_2" data-name="Layer 2" xmlns="http://www.w3.org/2000/svg" viewBox="0 0 216.48 250">
  <defs>
    <style>
      .cls-1 {
        opacity: .5;
      }

      .cls-2 {
        fill: #a5dbd9;
      }

      .cls-2, .cls-3, .cls-4, .cls-5, .cls-6 {
        stroke-width: 0px;
      }

      .cls-3 {
        fill: #82ac26;
      }

      .cls-4 {
        fill: #ff662a;
      }

      .cls-5 {
        fill: teal;
      }

      .cls-6 {
        fill: #aecccb;
      }
    </style>
  </defs>
  <g id="Layer_2-2" data-name="Layer 2">
    <g id="Layer_1-2" data-name="Layer 1-2">
      <g>
        <g class="cls-1">
          <polygon class="cls-2" points="36.62 80.81 108.23 122.11 108.23 39.42 36.62 80.81"/>
          <polygon class="cls-2" points="34.11 164.97 71.58 143.35 34.11 121.73 34.11 164.97"/>
          <polygon class="cls-2" points="74.08 190.82 74.08 144.73 34.11 167.73 74.08 190.82"/>
        </g>
        <g class="cls-1">
          <polygon class="cls-6" points="108.23 122.11 110.7 123.54 182.31 82.19 108.24 39.41 108.23 39.42 108.23 122.11"/>
          <polygon class="cls-6" points="142.4 190.82 179.87 169.19 142.4 147.57 142.4 190.82"/>
          <polygon class="cls-6" points="182.28 121.73 142.4 144.73 182.28 167.73 182.28 121.73"/>
        </g>
        <g>
          <polygon class="cls-3" points="108.2 125 76.5 143.35 108.2 161.61 108.2 125"/>
          <polygon class="cls-3" points="76.5 146.11 76.5 192.2 108.2 210.55 108.2 164.46 76.5 146.11"/>
          <polygon class="cls-3" points="184.78 166.35 216.48 148 216.48 101.91 184.78 120.26 184.78 166.35"/>
          <polygon class="cls-3" points="216.48 99.16 216.48 65.3 187.19 82.21 216.48 99.16"/>
        </g>
        <g>
          <polygon class="cls-5" points="105.73 123.57 42.69 87.14 34.11 82.19 34.11 118.88 74.08 141.89 105.73 123.57"/>
          <polygon class="cls-5" points="31.7 80.81 0 62.46 0 62.46 0 62.46 0 187.54 0 187.54 0 184.7 31.7 166.35 31.7 80.81"/>
          <polygon class="cls-5" points="0 187.54 105.79 248.61 105.79 211.92 31.7 169.19 0 187.54"/>
          <polygon class="cls-5" points="2.41 61.08 34.11 79.43 34.17 79.39 34.15 79.39 108.2 36.61 108.2 36.61 108.2 0 108.23 .02 108.2 0 0 62.46 0 62.46 2.41 61.08"/>
          <polygon class="cls-5" points="216.48 62.46 110.7 1.44 110.7 37.99 184.75 80.79 216.48 62.46"/>
          <polygon class="cls-5" points="182.28 170.57 108.2 213.39 108.2 250 216.23 187.69 214.07 188.92 182.28 170.57"/>
          <polygon class="cls-4" points="216.48 187.54 216.48 187.54 216.48 150.85 184.78 169.19 216.48 187.54"/>
          <polygon class="cls-5" points="139.99 192.2 139.99 146.11 108.2 164.46 108.2 164.46 108.2 210.55 108.2 210.55 139.99 192.2"/>
          <polygon class="cls-5" points="184.77 83.61 110.7 126.37 110.7 160.24 214.09 100.54 184.77 83.61"/>
        </g>
        <path class="cls-3" d="M152.91,82.3l-39.63,22.86c-1.15.66-2.58-.17-2.58-1.49v-45.72c0-1.33,1.44-2.16,2.58-1.49l39.63,22.86c1.15.66,1.15,2.32,0,2.98Z"/>
        <path class="cls-4" d="M105.79,57.95v45.72c0,1.33-1.44,2.16-2.58,1.49l-39.63-22.86c-1.15-.66-1.15-2.32,0-2.98l39.63-22.86c1.15-.66,2.58.17,2.58,1.49Z"/>
      </g>
    </g>
  </g>
</svg>