<?xml version="1.0" encoding="utf-8"?>
<!-- Generator: Adobe Illustrator 28.1.0, SVG Export Plug-In . SVG Version: 6.00 Build 0)  -->
<svg version="1.1" id="Layer_2_00000035503100703919504620000016319828845119900844_"
	 xmlns="http://www.w3.org/2000/svg" xmlns:xlink="http://www.w3.org/1999/xlink" x="0px" y="0px" viewBox="0 0 1260 275"
	 style="enable-background:new 0 0 1260 275;" xml:space="preserve">
<style type="text/css">
	.st0{fill:#00156A;}
</style>
<g>
	<path class="st0" d="M75.6,247.6c-10.9,0-20.2-2.1-27.9-6.4c-7.7-4.3-13.6-10.6-17.7-18.8s-6.2-18.1-6.2-29.7V82.3
		c0-11.7,2-21.6,6.2-29.7c4.1-8.2,10-14.4,17.7-18.7s17-6.5,27.9-6.5c11,0,20.3,2.2,28,6.5s13.6,10.6,17.7,18.8s6.1,18.1,6.1,29.8
		v17.3H90.2V82.5c0-3.7-0.5-6.8-1.6-9.4c-1.1-2.6-2.7-4.7-4.9-6.2c-2.2-1.5-4.8-2.2-8-2.2c-4.4,0-8,1.6-10.5,4.7
		c-2.6,3.1-3.8,7.4-3.8,13v110.3c0,5.5,1.3,9.8,3.8,12.9c2.6,3.1,6.1,4.6,10.5,4.6c4.7,0,8.4-1.6,10.8-4.7c2.5-3.1,3.7-7.4,3.7-13
		v-17.4h37.1v17.4c0,11.7-2,21.6-6.1,29.8s-9.9,14.5-17.7,18.8C95.9,245.4,86.6,247.6,75.6,247.6z"/>
	<path class="st0" d="M208.7,29.7h-25.8l-51.5,215.7h36.5l6.6-33.5h42.6l6.6,33.5h36.5L208.7,29.7z M181.4,177.4l14.5-73.4
		l14.5,73.4H181.4z"/>
	<path class="st0" d="M368.2,42.3c-8.6-8.4-20.7-12.7-36.1-12.7h-55.8v215.7h55.6c10.3,0,19.2-1.9,26.6-5.7
		c7.3-3.8,12.8-9.3,16.7-16.5c3.8-7.3,5.7-16,5.7-26.1V78C380.9,62.7,376.7,50.8,368.2,42.3z M343.8,192.8c0,5.5-1.4,9.6-4.1,12.7
		c-2.6,3-6.4,4.5-11.4,4.5H313V65h15.3c4.9,0,8.8,1.5,11.4,4.4c2.7,3,4.1,7.2,4.1,12.8V192.8z"/>
	<path class="st0" d="M541.5,218.3c1.2-2.3,2.3-4.9,3.3-7.5c4.3-11.7,6.5-25.8,6.5-42.4h-24.1c0,9.1-0.6,17.2-1.9,24.1l-12.2-19.4
		c-4.9-7.8-8.9-15.1-11.6-21.9c-2.9-6.8-4.3-13.6-4.3-20.5c0-3.9,0.9-6.9,2.5-9c1.6-2.1,3.9-3.1,6.8-3.1s5,1,6.7,3.1
		c1.6,2,2.3,4.9,2.3,8.6v12.6h25.2v-12.6c0-10.8-3-19.2-8.9-25.2c-6-6-14.4-8.9-25.3-8.9s-19.3,3-25.3,9.1c-6,6.1-9,14.6-9,25.4
		c0,10.2,2,19.7,6,28.3c1.9,4.1,4,8.2,6.4,12.7c-5.9,2-10.8,4.9-14.8,8.8c-6.9,6.8-10.3,15.7-10.3,27c0,12.5,3.3,22.1,9.8,29.1
		c6.5,6.9,15.6,10.3,27.3,10.3c10.7,0,19.9-2.6,27.6-7.8l3.7,6.2h30.9L541.5,218.3z M500.5,223.7c-5.2,0-9.3-1.4-12.2-4.3
		c-3-2.9-4.4-6.9-4.4-12c0-5.3,2-9.4,6.1-12.2c1.7-1.2,3.8-2.2,6.2-2.9l16.2,27.3C508.9,222.4,505,223.7,500.5,223.7z"/>
	<path class="st0" d="M685.6,247.6c-10.9,0-20.2-2.1-27.9-6.4c-7.7-4.3-13.6-10.6-17.7-18.8c-4.1-8.2-6.2-18.1-6.2-29.7V82.3
		c0-11.7,2-21.6,6.2-29.7c4.1-8.2,10-14.4,17.7-18.7s17-6.5,27.9-6.5c11,0,20.3,2.2,28,6.5s13.6,10.6,17.7,18.8
		c4.1,8.2,6.1,18.1,6.1,29.8v17.3h-37.2V82.5c0-3.7-0.5-6.8-1.6-9.4c-1.1-2.6-2.7-4.7-4.9-6.2s-4.8-2.2-8-2.2c-4.4,0-8,1.6-10.5,4.7
		c-2.6,3.1-3.8,7.4-3.8,13v110.3c0,5.5,1.3,9.8,3.8,12.9c2.6,3.1,6.1,4.6,10.5,4.6c4.7,0,8.4-1.6,10.8-4.7c2.5-3.1,3.7-7.4,3.7-13
		v-17.4h37.2v17.4c0,11.7-2,21.6-6.1,29.8s-9.9,14.5-17.7,18.8C705.9,245.4,696.6,247.6,685.6,247.6z"/>
	<path class="st0" d="M810,247.6c-11.6,0-21.5-2-29.7-6c-8.3-4-14.6-9.8-18.9-17.4c-4.4-7.6-6.5-16.7-6.5-27.4V78.2
		c0-10.8,2.2-20,6.5-27.5c4.3-7.6,10.6-13.3,18.9-17.3c8.3-3.9,18.2-5.9,29.7-5.9c11.6,0,21.5,2,29.7,5.9c8.3,4,14.6,9.7,18.9,17.3
		s6.5,16.7,6.5,27.5v118.7c0,10.7-2.2,19.8-6.5,27.4c-4.4,7.6-10.7,13.3-18.9,17.4C831.5,245.6,821.6,247.6,810,247.6z M810,210.8
		c5.7,0,10.2-1.6,13.3-4.9c3.1-3.3,4.7-7.9,4.7-13.8V82.6c0-5.8-1.6-10.4-4.7-13.6c-3.1-3.3-7.5-4.9-13.3-4.9
		c-5.6,0-10,1.6-13.1,4.9s-4.7,7.8-4.7,13.6v109.5c0,5.9,1.6,10.5,4.7,13.8C800,209.1,804.4,210.8,810,210.8z"/>
	<path class="st0" d="M980.5,42.3c-8.6-8.4-20.6-12.7-36.1-12.7h-55.8v215.7h55.6c10.4,0,19.3-1.9,26.6-5.7
		c7.3-3.8,12.9-9.3,16.8-16.5c3.8-7.3,5.8-16,5.8-26.1V78C993.4,62.7,989,50.8,980.5,42.3z M956.2,192.8c0,5.5-1.4,9.6-4,12.7
		c-2.7,3-6.5,4.5-11.5,4.5h-15.3V65h15.3c4.9,0,8.8,1.5,11.5,4.4c2.6,3,4,7.2,4,12.8V192.8z"/>
	<polygon class="st0" points="1053.6,65.6 1053.6,120.3 1105.2,120.3 1105.2,156 1053.6,156 1053.6,209.4 1112.6,209.4 
		1112.6,245.3 1016.8,245.3 1016.8,29.7 1112.6,29.7 1112.6,65.6 	"/>
	<path class="st0" d="M1182.8,247.6c-11.4,0-21.1-2.1-29.1-6.3c-8.1-4.2-14.2-10.3-18.5-18.2s-6.4-17.5-6.4-28.8v-11.6l36.6-0.3V194
		c0,5.4,1.5,9.7,4.6,12.8s7.3,4.7,12.8,4.7c5.3,0,9.5-1.5,12.4-4.6s4.4-7.3,4.4-12.6v-18.8c0-4.5-1.3-8.2-3.9-11.2
		s-6.1-5.7-10.5-8.2c-4.4-2.4-9.1-4.9-14.1-7.3c-4.8-2.5-9.8-5.2-14.8-8.3s-9.5-6.8-13.6-11.1s-7.4-9.6-9.9-15.8s-3.8-13.7-3.8-22.5
		V80c0-16.6,4.7-29.5,14-38.7s22.5-13.8,39.5-13.8c16.5,0,29.4,4.7,38.7,14c9.3,9.3,13.9,22.3,13.9,39.2v12.2l-36.6,0.4V80.8
		c0-5.5-1.4-9.9-4.2-13c-2.8-3.1-6.7-4.7-11.8-4.7c-5.3,0-9.5,1.4-12.4,4.2s-4.4,6.7-4.4,11.6v14.4c0,5,1.5,9.2,4.5,12.4
		s6.9,6,11.7,8.5c4.8,2.4,9.9,5.1,15.2,7.9c4.6,2.4,9.3,4.9,13.9,7.7s8.8,6.1,12.6,10.1c3.8,4,6.9,8.8,9.2,14.7
		c2.3,5.8,3.5,13.1,3.5,21.6v18c0,16.8-4.7,29.9-14,39.2C1212.8,242.9,1199.7,247.6,1182.8,247.6z"/>
</g>
</svg>
